<svg id="Capa_1" enable-background="new 0 0 510 510" height="512" viewBox="0 0 510 510" width="512" xmlns="http://www.w3.org/2000/svg"><g><path d="m240 120h30v30h30v-90h-30v30h-30v-30h-30v90h30z"/><path d="m479.934 422.547c-1.277-23.678-20.943-42.547-44.934-42.547h-15v-380h-330v380h-15c-23.991 0-43.657 18.869-44.934 42.547-17.495 6.173-30.066 22.872-30.066 42.453v45h510v-45c0-19.581-12.571-36.28-30.066-42.453zm-359.934-392.547h270v300h-60c0-41.355-33.645-75-75-75s-75 33.645-75 75h-60zm90 300c0-24.813 20.187-45 45-45s45 20.187 45 45zm30 30v120h-30v-120zm30 0h30v120h-30zm-240 120v-15c0-8.271 6.729-15 15-15h15v-25c0-8.271 6.729-15 15-15h15v70zm90-120h60v120h-60zm210 120v-120h60v120zm150 0h-60v-70h15c8.271 0 15 6.729 15 15v25h15c8.271 0 15 6.729 15 15z"/><path d="m150 60h30v30h-30z"/><path d="m330 60h30v30h-30z"/><path d="m150 120h30v30h-30z"/><path d="m330 120h30v30h-30z"/><path d="m150 180h30v30h-30z"/><path d="m210 180h30v30h-30z"/><path d="m270 180h30v30h-30z"/><path d="m330 180h30v30h-30z"/><path d="m150 240h30v30h-30z"/><path d="m330 240h30v30h-30z"/></g></svg>