<svg xmlns="http://www.w3.org/2000/svg" width="224" height="43.78" viewBox="0 0 200.914 39.28"><g transform="translate(-25.606 -2)"><path d="M-1.394,0H12.961l15.85,39.046L14.78,38.755Z" transform="translate(27 2)" fill="#1e1f1e"/><path d="M55.518,49.186s7.584,2.246,12.665,0a8.986,8.986,0,0,1,8.652.331L70.281,63.139a15.835,15.835,0,0,0-9.921-.81,29.346,29.346,0,0,1-11.543,0Z" transform="translate(0 -46)" fill="#ffd312"/><path d="M11.68-14,7.8-4.88,4-14H-.28L5.7,0H9.6l6-14ZM20.34-3.06V-5.62h6.22V-8.58H20.34v-2.36H27.4V-14H16.42V0H27.66V-3.06Zm13.44,0V-5.62H40V-8.58H33.78v-2.36h7.06V-14H29.86V0H41.1V-3.06ZM52.74-14v7.46L46.56-14H43.3V0h3.88V-7.46L53.36,0h3.26V-14ZM69.9,0h4.12l-6.2-14h-3.9L57.74,0h4.04l1.1-2.72H68.8ZM64.04-5.64l1.8-4.48,1.8,4.48ZM99.14-14,96.2-4.98,93.38-14H89.74L86.78-5.06,83.96-14H79.88L84.42,0h4.24l2.8-8.52L94.14,0h4.24l4.54-14ZM111.22.28C115.7.28,119-2.8,119-7s-3.3-7.28-7.78-7.28S103.44-11.2,103.44-7,106.74.28,111.22.28Zm0-3.28a3.749,3.749,0,0,1-3.78-4,3.749,3.749,0,0,1,3.78-4A3.749,3.749,0,0,1,115-7,3.749,3.749,0,0,1,111.22-3Zm18.52,3h4.24l-3.02-4.4a4.646,4.646,0,0,0,2.74-4.42c0-3.2-2.4-5.18-6.22-5.18h-6.4V0h3.96V-3.72h2.16Zm-.04-8.82c0,1.28-.82,2.04-2.46,2.04h-2.2v-4.1h2.2C128.88-10.88,129.7-10.12,129.7-8.82ZM135.88,0h10.64V-3.14h-6.68V-14h-3.96Zm12.2,0h6.62c4.64,0,7.82-2.7,7.82-7s-3.18-7-7.82-7h-6.62Zm3.96-3.16v-7.68h2.5A3.64,3.64,0,0,1,158.52-7a3.64,3.64,0,0,1-3.98,3.84Z" transform="translate(64 41)" fill="#1e1f1e"/></g></svg>